<?xml version="1.0" encoding="UTF-8"?>
<svg width="100pt" height="100pt" version="1.1" viewBox="0 0 100 100" xmlns="http://www.w3.org/2000/svg">
 <g fill="none" stroke="#e04848" stroke-linecap="round" stroke-linejoin="round" stroke-width="2">
  <path transform="matrix(1.6667 0 0 1.6667 1.6667 1.6667)" d="m57.999 57.999h-57.998"/>
  <path transform="matrix(1.6667 0 0 1.6667 1.6667 1.6667)" d="m27.001 27.999-12-15.998-12 15.998v30h24z"/>
  <path transform="matrix(1.6667 0 0 1.6667 1.6667 1.6667)" d="m30.999 57.999h24"/>
  <path transform="matrix(1.6667 0 0 1.6667 1.6667 1.6667)" d="m54.999 51.13v-23.13l-3.9984-5.3297-6-7.9992-2.0016-2.6695h-27.998"/>
  <path transform="matrix(1.6667 0 0 1.6667 1.6667 1.6667)" d="m27.001 27.999h27.998"/>
  <path transform="matrix(1.6667 0 0 1.6667 1.6667 1.6667)" d="m8 47h4.0008c0.55078 0 0.99844 0.44766 0.99844 1.0008v9.9984h-6v-9.9984c0-0.55312 0.44766-1.0008 1.0008-1.0008z"/>
  <path transform="matrix(1.6667 0 0 1.6667 1.6667 1.6667)" d="m8 33.999h4.0008c0.55312 0 1.0008 0.55312 1.0008 1.0008v4.0008c0 0.55312-0.44766 1.0008-1.0008 1.0008h-4.0008c-0.55312 0-1.0008-0.55312-1.0008-1.0008v-4.0008c0-0.55312 0.44766-1.0008 1.0008-1.0008z"/>
  <path transform="matrix(1.6667 0 0 1.6667 1.6667 1.6667)" d="m18.001 33.999h4.0008c0.55313 0 1.0008 0.55312 1.0008 1.0008v4.0008c0 0.55312-0.44766 1.0008-1.0008 1.0008h-4.0008c-0.55312 0-1.0008-0.55312-1.0008-1.0008v-4.0008c0-0.55312 0.44766-1.0008 1.0008-1.0008z"/>
  <path transform="matrix(1.6667 0 0 1.6667 1.6667 1.6667)" d="m18.001 47h4.0008c0.55313 0 1.0008 0.55312 1.0008 1.0008v4.0008c0 0.55313-0.44766 1.0008-1.0008 1.0008h-4.0008c-0.55312 0-1.0008-0.55312-1.0008-1.0008v-4.0008c0-0.55312 0.44766-1.0008 1.0008-1.0008z"/>
  <path transform="matrix(1.6667 0 0 1.6667 1.6667 1.6667)" d="m36.8 22.4-4.5-6c-0.18984-0.25078-0.48516-0.40078-0.79922-0.40078h-5.5008c-0.37969 0-0.72422 0.21562-0.89531 0.55312-0.16875 0.33984-0.13125 0.74531 0.096093 1.0477l4.5 6c0.1875 0.25078 0.48516 0.40078 0.79922 0.40078h5.5008c0.37734 0 0.72422-0.21562 0.89297-0.55312 0.17109-0.33984 0.13359-0.74531-0.09375-1.0477z"/>
  <path transform="matrix(1.6667 0 0 1.6667 1.6667 1.6667)" d="m32 33.999h4.0008c0.55312 0 1.0008 0.55312 1.0008 1.0008v4.0008c0 0.55312-0.44766 1.0008-1.0008 1.0008h-4.0008c-0.55312 0-1.0008-0.55312-1.0008-1.0008v-4.0008c0-0.55312 0.44766-1.0008 1.0008-1.0008z"/>
  <path transform="matrix(1.6667 0 0 1.6667 1.6667 1.6667)" d="m32 47h4.0008c0.55312 0 1.0008 0.55312 1.0008 1.0008v4.0008c0 0.55313-0.44766 1.0008-1.0008 1.0008h-4.0008c-0.55312 0-1.0008-0.55312-1.0008-1.0008v-4.0008c0-0.55312 0.44766-1.0008 1.0008-1.0008z"/>
  <path transform="matrix(1.6667 0 0 1.6667 1.6667 1.6667)" d="m42.001 33.999h7.9992c0.55312 0 1.0008 0.55312 1.0008 1.0008v4.0008c0 0.55312-0.44766 1.0008-1.0008 1.0008h-7.9992c-0.55312 0-1.0008-0.55312-1.0008-1.0008v-4.0008c0-0.55312 0.44766-1.0008 1.0008-1.0008z"/>
  <path transform="matrix(1.6667 0 0 1.6667 1.6667 1.6667)" d="m53.97 51.001h0.030469c1.0594 0 2.0789 0.41953 2.8289 1.1695s1.1695 1.7695 1.1695 2.8289v3h-16.999v-3c0-1.0594 0.42188-2.0789 1.1719-2.8289s1.7672-1.1695 2.8289-1.1695h0.028125"/>
  <path transform="matrix(1.6667 0 0 1.6667 1.6667 1.6667)" d="m53.97 51.001c0.021094-0.16641 0.030469-0.33281 0.030469-0.50156 0-2.4844-2.0156-4.5-4.5-4.5-2.4867 0-4.5 2.0156-4.5 4.5 0 0.16875 0.009375 0.33516 0.028125 0.50156"/>
  <path transform="matrix(1.6667 0 0 1.6667 1.6667 1.6667)" d="m21.46 12.001c0.71719-1.2375 0.71953-2.7633 0.004688-4.0008-0.7125-1.2398-2.0344-2.0016-3.4641-1.9992 0-3.3141-2.6859-6-6-6-3.3141 0-6 2.6859-6 6-2.2102 0-4.0008 1.7906-4.0008 3.9984 0 2.2102 1.7906 4.0008 4.0008 4.0008h7.5"/>
  <path transform="matrix(1.6667 0 0 1.6667 1.6667 1.6667)" d="m45.999 15.999h8.0016c2.2078 0 3.9984-1.7906 3.9984-3.9984 0-2.2102-1.7906-4.0008-3.9984-4.0008 0-3.3141-2.6859-6-6-6-3.3141 0-6 2.6859-6 6-1.0617 0-2.0789 0.42188-2.8289 1.1719s-1.1719 1.7672-1.1719 2.8289"/>
 </g>
</svg>
